<?xml version="1.0" encoding="utf-8"?>
<svg viewBox="0 0 500 500" xmlns="http://www.w3.org/2000/svg">
  <g style="" transform="matrix(2.1138041019439697, 0, 0, 2.1138041019439697, -318.2353210449219, -251.14089965820312)">
    <path d="M 277.685 184.642 C 272.172 184.714 267.194 184.788 262.746 184.862 C 258.299 184.936 254.495 185.047 251.335 185.193 C 247.659 185.339 244.387 185.486 241.522 185.633 C 241.375 184.752 241.265 183.869 241.192 182.988 C 240.972 181.444 240.861 179.533 240.861 177.253 C 240.861 175.931 240.954 174.332 241.137 172.459 C 241.32 170.583 241.67 168.471 242.185 166.118 L 340.311 166.118 C 340.384 166.854 340.457 167.626 340.531 168.433 C 340.605 169.094 340.677 169.848 340.75 170.693 C 340.824 171.539 340.861 172.367 340.861 173.176 C 340.861 174.644 340.734 176.556 340.476 178.908 C 340.217 181.259 339.759 183.464 339.097 185.523 C 338.509 185.449 336.984 185.358 334.521 185.248 C 332.059 185.138 329.101 185.046 325.645 184.973 C 322.191 184.899 318.444 184.824 314.401 184.751 C 310.359 184.678 306.425 184.642 302.602 184.642 L 302.602 315.844 L 277.685 315.844 L 277.685 184.642 Z" style="fill: rgb(51, 51, 51);"/>
    <path d="M 171.466 264.545 C 171.466 254.637 172.851 246.043 175.624 238.765 C 178.398 231.49 182.157 225.46 186.904 220.677 C 191.651 215.896 197.143 212.347 203.379 210.022 C 209.617 207.701 216.234 206.541 223.234 206.541 C 225.866 206.541 228.223 206.662 230.302 206.905 C 232.381 207.147 234.149 207.443 235.604 207.788 C 237.336 208.135 238.86 208.55 240.177 209.035 L 240.177 166.207 L 262.319 166.207 L 262.319 298.639 L 271.466 309.243 L 271.466 315.792 L 250.675 315.792 L 243.504 307.581 L 239.97 307.581 C 239.624 307.928 238.913 308.654 237.84 309.764 C 236.764 310.873 235.24 312.015 233.266 313.192 C 231.291 314.373 228.864 315.447 225.989 316.415 C 223.111 317.386 219.734 317.869 215.853 317.869 C 210.724 317.869 205.528 316.832 200.26 314.75 C 194.994 312.673 190.23 309.452 185.968 305.086 C 181.706 300.72 178.223 295.194 175.521 288.505 C 172.819 281.818 171.466 273.832 171.466 264.545 Z M 194.751 264.545 C 194.751 270.99 195.426 276.498 196.779 281.071 C 198.13 285.647 200.053 289.407 202.547 292.35 C 205.043 295.296 208.092 297.443 211.694 298.796 C 215.298 300.149 219.353 300.822 223.857 300.822 C 225.591 300.822 227.426 300.545 229.366 299.992 C 231.306 299.439 233.075 298.779 234.668 298.015 C 236.54 297.254 238.375 296.32 240.177 295.211 L 240.177 224.941 C 239.277 224.386 237.943 223.832 236.175 223.277 C 234.408 222.724 231.966 222.445 228.847 222.445 C 217.968 222.445 209.564 226.033 203.638 233.203 C 197.713 240.377 194.751 250.822 194.751 264.545 Z" style="fill: rgb(51, 51, 51);"/>
    <path d="M 319.624 166.162 L 341.158 166.162 L 341.158 298.376 L 347.295 302.746 L 347.295 315.854 L 341.365 315.854 L 341.158 315.646 L 341.158 315.854 C 334.292 315.854 328.987 314.466 325.241 311.691 C 321.497 308.918 319.624 304.341 319.624 297.961 L 319.624 166.162 Z" style="fill: rgb(51, 51, 51);"/>
  </g>
</svg>